<svg width="201" height="147" viewBox="0 0 201 147" fill="none" xmlns="http://www.w3.org/2000/svg">
<circle cx="100.958" cy="37.7966" r="36.4408" stroke="#2A2B2C" stroke-width="0.8888"/>
<line x1="101.402" y1="28.4644" x2="101.402" y2="48.018" stroke="#2A2B2C" stroke-width="1.7776"/>
<line x1="91.6255" y1="38.2411" x2="111.179" y2="38.2411" stroke="#2A2B2C" stroke-width="1.7776"/>
<path d="M0.968262 116.804V111.836H1.31489C2.42412 111.836 3.04035 111.22 3.1636 109.987L4.20349 97.3929H14.2558V111.836H15.989V116.804H14.1403V113.569H2.81697V116.804H0.968262ZM4.31904 111.836H12.4071V99.1261H5.93665L5.0123 109.987C4.95068 110.619 4.81973 111.112 4.61945 111.466C4.51161 111.651 4.41147 111.774 4.31904 111.836ZM27.0971 112.136C26.0495 113.246 24.7323 113.8 23.1455 113.8C21.5587 113.8 20.2338 113.246 19.1708 112.136C18.1232 111.012 17.5994 109.564 17.5994 107.792C17.5994 106.02 18.1232 104.58 19.1708 103.471C20.2338 102.346 21.5587 101.784 23.1455 101.784C24.7323 101.784 26.0495 102.346 27.0971 103.471C28.1601 104.58 28.6916 106.02 28.6916 107.792C28.6916 109.564 28.1601 111.012 27.0971 112.136ZM20.4187 110.958C21.1581 111.774 22.0671 112.183 23.1455 112.183C24.2239 112.183 25.1251 111.774 25.8492 110.958C26.5887 110.141 26.9584 109.086 26.9584 107.792C26.9584 106.498 26.5887 105.442 25.8492 104.626C25.1251 103.809 24.2239 103.401 23.1455 103.401C22.0671 103.401 21.1581 103.809 20.4187 104.626C19.6946 105.442 19.3325 106.498 19.3325 107.792C19.3325 109.086 19.6946 110.141 20.4187 110.958ZM30.6459 107.792V107.099C30.6459 105.065 30.8847 103.463 31.3623 102.292C31.8553 101.121 32.6949 100.181 33.8812 99.4727C34.2047 99.2879 34.5513 99.1338 34.921 99.0105C35.2908 98.8873 35.5912 98.8026 35.8223 98.7563C36.0688 98.7101 36.4462 98.6562 36.9546 98.5946C37.463 98.5176 37.8251 98.4636 38.0407 98.4328C38.8881 98.325 39.3117 97.7858 39.3117 96.8152H40.8138C40.8138 98.6177 40.005 99.6576 38.3874 99.9349C38.1717 99.9657 37.8328 100.02 37.3706 100.097C36.9238 100.158 36.5926 100.212 36.3769 100.258C36.1766 100.289 35.9147 100.359 35.5912 100.466C35.2677 100.574 34.9673 100.705 34.69 100.859C33.3805 101.66 32.6102 102.931 32.3791 104.672H32.4946C33.419 103.44 34.69 102.823 36.3076 102.823C37.7711 102.823 39.0036 103.34 40.005 104.372C41.0064 105.404 41.5071 106.698 41.5071 108.254C41.5071 109.872 40.991 111.204 39.9588 112.252C38.942 113.284 37.6479 113.8 36.0765 113.8C34.4743 113.8 33.1648 113.253 32.148 112.159C31.1466 111.066 30.6459 109.61 30.6459 107.792ZM33.4421 111.073C34.1508 111.813 35.0289 112.183 36.0765 112.183C37.1241 112.183 38.0022 111.813 38.7109 111.073C39.4196 110.334 39.7739 109.394 39.7739 108.254C39.7739 107.114 39.4196 106.174 38.7109 105.435C38.0022 104.695 37.1241 104.326 36.0765 104.326C35.0289 104.326 34.1508 104.695 33.4421 105.435C32.7334 106.174 32.3791 107.114 32.3791 108.254C32.3791 109.394 32.7334 110.334 33.4421 111.073ZM51.5522 113.569L51.3211 112.183H51.2055C50.9898 112.491 50.7125 112.76 50.3736 112.991C49.6649 113.531 48.7483 113.8 47.6237 113.8C46.422 113.8 45.4437 113.469 44.6888 112.807C43.9494 112.144 43.5796 111.281 43.5796 110.218C43.5796 109.063 43.9571 108.162 44.712 107.515C45.4823 106.852 46.6454 106.521 48.2014 106.521H51.3211V106.174C51.3211 105.296 51.0746 104.618 50.5816 104.141C50.104 103.648 49.4262 103.401 48.548 103.401C47.7161 103.401 47.0382 103.594 46.5144 103.979C46.0061 104.349 45.721 104.811 45.6594 105.365H43.9263C43.9879 104.379 44.4269 103.54 45.2435 102.847C46.0754 102.138 47.1769 101.784 48.548 101.784C49.95 101.784 51.0515 102.169 51.8526 102.939C52.6537 103.709 53.0542 104.788 53.0542 106.174V113.569H51.5522ZM51.3211 108.601V108.139H48.2014C47.2154 108.139 46.4836 108.331 46.0061 108.716C45.5439 109.101 45.3128 109.602 45.3128 110.218C45.3128 110.819 45.5131 111.297 45.9136 111.651C46.3142 112.005 46.8842 112.183 47.6237 112.183C48.7791 112.183 49.6804 111.867 50.3274 111.235C50.9898 110.588 51.3211 109.71 51.3211 108.601ZM56.2958 113.569V102.015H62.3041C63.29 102.015 64.0757 102.307 64.6612 102.893C65.2466 103.478 65.5393 104.264 65.5393 105.25C65.5393 105.974 65.3082 106.598 64.846 107.122C64.6304 107.353 64.3993 107.538 64.1528 107.676V107.792C64.4147 107.884 64.6843 108.061 64.9616 108.323C65.5008 108.863 65.7704 109.517 65.7704 110.288C65.7704 111.243 65.4623 112.029 64.846 112.645C64.2298 113.261 63.4595 113.569 62.5352 113.569H56.2958ZM58.0289 112.067H62.3041C62.7817 112.067 63.1899 111.905 63.5288 111.582C63.8678 111.243 64.0372 110.811 64.0372 110.288C64.0372 109.748 63.8678 109.317 63.5288 108.994C63.1899 108.655 62.7817 108.485 62.3041 108.485H58.0289V112.067ZM58.0289 106.983H62.073C62.5506 106.983 62.9588 106.821 63.2978 106.498C63.6367 106.174 63.8061 105.758 63.8061 105.25C63.8061 104.742 63.6367 104.326 63.2978 104.002C62.9588 103.679 62.5506 103.517 62.073 103.517H58.0289V106.983ZM68.3015 113.569V102.015H70.0347V111.489H70.4969L74.8875 102.015H77.8917V113.569H76.1585V104.094H75.6963L71.3057 113.569H68.3015ZM83.7772 113.569V103.632H79.8487V102.015H89.4389V103.632H85.5104V113.569H83.7772ZM91.4103 113.569V102.015H93.1435V105.943H96.7254C97.8808 105.943 98.8206 106.305 99.5446 107.029C100.284 107.738 100.654 108.647 100.654 109.756C100.654 110.865 100.284 111.782 99.5446 112.506C98.8206 113.215 97.8808 113.569 96.7254 113.569H91.4103ZM93.1435 111.951H96.7254C97.3724 111.951 97.8962 111.751 98.2968 111.351C98.7127 110.935 98.9207 110.403 98.9207 109.756C98.9207 109.109 98.7127 108.585 98.2968 108.185C97.8962 107.769 97.3724 107.561 96.7254 107.561H93.1435V111.951ZM108.291 113.569V102.015H110.024V107.33L115.223 102.015H117.419L111.872 107.676L117.65 113.569H115.454L110.024 108.023V113.569H108.291ZM126.317 113.569L126.086 112.183H125.971C125.755 112.491 125.478 112.76 125.139 112.991C124.43 113.531 123.513 113.8 122.389 113.8C121.187 113.8 120.209 113.469 119.454 112.807C118.714 112.144 118.345 111.281 118.345 110.218C118.345 109.063 118.722 108.162 119.477 107.515C120.247 106.852 121.41 106.521 122.966 106.521H126.086V106.174C126.086 105.296 125.84 104.618 125.347 104.141C124.869 103.648 124.191 103.401 123.313 103.401C122.481 103.401 121.803 103.594 121.28 103.979C120.771 104.349 120.486 104.811 120.425 105.365H118.691C118.753 104.379 119.192 103.54 120.009 102.847C120.84 102.138 121.942 101.784 123.313 101.784C124.715 101.784 125.817 102.169 126.618 102.939C127.419 103.709 127.819 104.788 127.819 106.174V113.569H126.317ZM126.086 108.601V108.139H122.966C121.981 108.139 121.249 108.331 120.771 108.716C120.309 109.101 120.078 109.602 120.078 110.218C120.078 110.819 120.278 111.297 120.679 111.651C121.079 112.005 121.649 112.183 122.389 112.183C123.544 112.183 124.445 111.867 125.092 111.235C125.755 110.588 126.086 109.71 126.086 108.601ZM131.061 118.191V102.015H132.563L132.794 103.632H132.91C133.88 102.4 135.113 101.784 136.607 101.784C138.132 101.784 139.395 102.346 140.397 103.471C141.414 104.58 141.922 106.02 141.922 107.792C141.922 109.564 141.414 111.012 140.397 112.136C139.395 113.246 138.132 113.8 136.607 113.8C135.113 113.8 133.88 113.184 132.91 111.951H132.794V118.191H131.061ZM133.88 110.958C134.604 111.774 135.475 112.183 136.491 112.183C137.508 112.183 138.379 111.774 139.103 110.958C139.827 110.141 140.189 109.086 140.189 107.792C140.189 106.498 139.827 105.442 139.103 104.626C138.379 103.809 137.508 103.401 136.491 103.401C135.475 103.401 134.604 103.809 133.88 104.626C133.156 105.442 132.794 106.498 132.794 107.792C132.794 109.086 133.156 110.141 133.88 110.958ZM146.672 113.569V103.632H142.743V102.015H152.334V103.632H148.405V113.569H146.672ZM154.305 113.569V102.015H156.038V111.489H156.5L160.891 102.015H163.895V113.569H162.162V104.094H161.7L157.309 113.569H154.305ZM167.123 113.569V102.015H168.856V106.983H174.98V102.015H176.713V113.569H174.98V108.601H168.856V113.569H167.123ZM179.941 113.569V102.015H181.675V107.33L186.874 102.015H189.069L183.523 107.676L189.3 113.569H187.105L181.675 108.023V113.569H179.941ZM190.342 118.191V116.573H192.538C192.923 116.573 193.192 116.342 193.346 115.88L193.808 114.493L189.071 102.015H190.92L194.502 111.605H194.964L198.199 102.015H200.048L194.848 116.573C194.648 117.143 194.386 117.552 194.063 117.798C193.739 118.06 193.269 118.191 192.653 118.191H190.342Z" fill="#2A2B2C"/>
<path d="M16.7533 144.072V142.507H16.54C15.2222 142.507 14.1698 142.147 13.3829 141.427C12.5961 140.706 12.2026 139.787 12.2026 138.668C12.2026 137.549 12.5961 136.63 13.3829 135.909C14.1698 135.189 15.2222 134.828 16.54 134.828H16.7533V133.548H17.8909V134.828H18.1043C19.422 134.828 20.4744 135.189 21.2613 135.909C22.0482 136.63 22.4416 137.549 22.4416 138.668C22.4416 139.787 22.0482 140.706 21.2613 141.427C20.4744 142.147 19.422 142.507 18.1043 142.507H17.8909V144.072H16.7533ZM17.8909 141.512H18.1043C19.0807 141.512 19.8582 141.247 20.4365 140.716C21.0148 140.185 21.3039 139.502 21.3039 138.668C21.3039 137.834 21.0148 137.151 20.4365 136.62C19.8582 136.089 19.0807 135.824 18.1043 135.824H17.8909V141.512ZM16.54 141.512H16.7533V135.824H16.54C15.5635 135.824 14.7861 136.089 14.2078 136.62C13.6294 137.151 13.3403 137.834 13.3403 138.668C13.3403 139.502 13.6294 140.185 14.2078 140.716C14.7861 141.247 15.5635 141.512 16.54 141.512ZM28.6249 143.787L28.4827 142.934H28.4116C28.2788 143.124 28.1082 143.29 27.8996 143.432C27.4635 143.764 26.8994 143.93 26.2073 143.93C25.4679 143.93 24.8658 143.726 24.4013 143.318C23.9462 142.91 23.7187 142.379 23.7187 141.725C23.7187 141.014 23.951 140.46 24.4155 140.062C24.8895 139.654 25.6053 139.45 26.5629 139.45H28.4827V139.237C28.4827 138.696 28.331 138.279 28.0276 137.985C27.7337 137.682 27.3166 137.53 26.7762 137.53C26.2642 137.53 25.8471 137.649 25.5247 137.886C25.2119 138.113 25.0365 138.398 24.9986 138.739H23.932C23.9699 138.132 24.2401 137.616 24.7426 137.189C25.2545 136.753 25.9324 136.535 26.7762 136.535C27.6389 136.535 28.3168 136.772 28.8097 137.246C29.3027 137.72 29.5492 138.383 29.5492 139.237V143.787H28.6249ZM28.4827 140.73V140.445H26.5629C25.9561 140.445 25.5058 140.564 25.2119 140.801C24.9275 141.038 24.7853 141.346 24.7853 141.725C24.7853 142.095 24.9085 142.389 25.155 142.607C25.4015 142.825 25.7523 142.934 26.2073 142.934C26.9184 142.934 27.473 142.74 27.8712 142.351C28.2788 141.953 28.4827 141.412 28.4827 140.73ZM31.544 143.787V136.677H32.6106V142.507H32.895L35.5969 136.677H37.4457V143.787H36.3791V137.957H36.0947L33.3927 143.787H31.544ZM32.5395 133.691H33.4638C33.5018 134.003 33.6155 134.25 33.8051 134.43C33.9947 134.601 34.2365 134.686 34.5304 134.686C34.8243 134.686 35.066 134.601 35.2557 134.43C35.4453 134.25 35.559 134.003 35.5969 133.691H36.5213C36.4834 134.221 36.2795 134.653 35.9098 134.985C35.5401 135.307 35.0803 135.468 34.5304 135.468C33.9805 135.468 33.5207 135.307 33.151 134.985C32.7812 134.653 32.5774 134.221 32.5395 133.691ZM38.5789 143.858V142.792H39.0055C39.5743 142.792 39.8824 142.46 39.9298 141.796L40.3565 136.677H45.1204V143.787H44.0539V137.672H41.3519L40.9964 141.796C40.8732 143.171 40.2095 143.858 39.0055 143.858H38.5789ZM50.2471 143.787V142.507H51.527V143.787H50.2471ZM53.3752 146.632V136.677H54.2995L54.4417 137.672H54.5128C55.1101 136.914 55.8686 136.535 56.7882 136.535C57.7267 136.535 58.5041 136.881 59.1204 137.573C59.7461 138.255 60.0589 139.142 60.0589 140.232C60.0589 141.322 59.7461 142.214 59.1204 142.906C58.5041 143.588 57.7267 143.93 56.7882 143.93C55.8686 143.93 55.1101 143.55 54.5128 142.792H54.4417V146.632H53.3752ZM55.1101 142.18C55.5557 142.683 56.0913 142.934 56.7171 142.934C57.3428 142.934 57.8784 142.683 58.324 142.18C58.7696 141.678 58.9924 141.029 58.9924 140.232C58.9924 139.436 58.7696 138.786 58.324 138.284C57.8784 137.781 57.3428 137.53 56.7171 137.53C56.0913 137.53 55.5557 137.781 55.1101 138.284C54.6645 138.786 54.4417 139.436 54.4417 140.232C54.4417 141.029 54.6645 141.678 55.1101 142.18ZM61.6243 143.787V136.677H62.5487L62.6909 137.459H62.762C62.9137 137.269 63.0891 137.118 63.2882 137.004C63.7812 136.691 64.3168 136.535 64.8951 136.535C65.7199 136.535 66.3978 136.814 66.9287 137.374C67.4691 137.924 67.7393 138.639 67.7393 139.521V143.787H66.6727V139.521C66.6727 138.952 66.4879 138.478 66.1181 138.099C65.7484 137.72 65.2933 137.53 64.7529 137.53C64.1841 137.53 63.6958 137.729 63.2882 138.127C62.89 138.516 62.6909 138.981 62.6909 139.521V143.787H61.6243ZM69.5924 144.356H70.659C70.6969 144.754 70.9008 145.091 71.2705 145.366C71.6402 145.641 72.1474 145.778 72.7921 145.778C73.4368 145.778 73.9535 145.598 74.3422 145.238C74.7309 144.878 74.9252 144.394 74.9252 143.787V142.507H74.8541C74.2663 143.171 73.5079 143.503 72.5788 143.503C71.6402 143.503 70.8581 143.181 70.2324 142.536C69.6161 141.882 69.308 141.043 69.308 140.019C69.308 138.995 69.6161 138.161 70.2324 137.516C70.8581 136.862 71.6402 136.535 72.5788 136.535C73.0339 136.535 73.4605 136.634 73.8587 136.833C74.2663 137.023 74.5982 137.279 74.8541 137.601H74.9252L75.0674 136.677H75.9918V143.787C75.9918 144.688 75.7026 145.409 75.1243 145.949C74.5555 146.499 73.7781 146.774 72.7921 146.774C71.8441 146.774 71.0809 146.532 70.5026 146.048C69.9337 145.574 69.6304 145.01 69.5924 144.356ZM71.0145 141.825C71.4506 142.28 71.9958 142.507 72.6499 142.507C73.3041 142.507 73.8445 142.28 74.2711 141.825C74.7072 141.36 74.9252 140.758 74.9252 140.019C74.9252 139.279 74.7072 138.682 74.2711 138.227C73.8445 137.762 73.3041 137.53 72.6499 137.53C71.9958 137.53 71.4506 137.762 71.0145 138.227C70.5879 138.682 70.3746 139.279 70.3746 140.019C70.3746 140.758 70.5879 141.36 71.0145 141.825ZM81.2613 143.787V136.677H82.3278V139.734H86.0963V136.677H87.1629V143.787H86.0963V140.73H82.3278V143.787H81.2613ZM94.0555 141.796H95.1932C94.9467 142.479 94.558 143.005 94.0271 143.375C93.5057 143.745 92.8752 143.93 92.1357 143.93C91.1592 143.93 90.3439 143.588 89.6898 142.906C89.0451 142.214 88.7227 141.322 88.7227 140.232C88.7227 139.142 89.0451 138.255 89.6898 137.573C90.3439 136.881 91.1592 136.535 92.1357 136.535C93.0743 136.535 93.8517 136.857 94.468 137.502C95.0937 138.146 95.4065 138.962 95.4065 139.948C95.4065 140.099 95.3923 140.303 95.3639 140.559L95.3354 140.73H89.7893C89.8652 141.394 90.1211 141.929 90.5572 142.337C91.0028 142.735 91.529 142.934 92.1357 142.934C92.5624 142.934 92.9416 142.835 93.2734 142.635C93.6147 142.436 93.8754 142.157 94.0555 141.796ZM89.7893 139.734H94.34C94.302 139.09 94.0745 138.564 93.6574 138.156C93.2497 137.739 92.7425 137.53 92.1357 137.53C91.5005 137.53 90.9696 137.734 90.543 138.142C90.1164 138.549 89.8652 139.08 89.7893 139.734ZM99.89 140.232V139.806C99.89 138.554 100.037 137.568 100.331 136.848C100.634 136.127 101.151 135.549 101.881 135.113C102.08 134.999 102.293 134.904 102.521 134.828C102.748 134.752 102.933 134.7 103.075 134.672C103.227 134.643 103.459 134.61 103.772 134.572C104.085 134.525 104.308 134.492 104.441 134.473C104.962 134.406 105.223 134.075 105.223 133.477H106.147C106.147 134.586 105.649 135.226 104.654 135.397C104.521 135.416 104.313 135.449 104.028 135.497C103.753 135.535 103.549 135.568 103.417 135.596C103.293 135.615 103.132 135.658 102.933 135.724C102.734 135.791 102.549 135.871 102.379 135.966C101.573 136.459 101.099 137.241 100.957 138.312H101.028C101.596 137.554 102.379 137.175 103.374 137.175C104.275 137.175 105.033 137.492 105.649 138.127C106.266 138.763 106.574 139.559 106.574 140.517C106.574 141.512 106.256 142.332 105.621 142.977C104.995 143.612 104.199 143.93 103.232 143.93C102.246 143.93 101.44 143.593 100.814 142.92C100.198 142.247 99.89 141.351 99.89 140.232ZM101.611 142.252C102.047 142.707 102.587 142.934 103.232 142.934C103.877 142.934 104.417 142.707 104.853 142.252C105.289 141.796 105.507 141.218 105.507 140.517C105.507 139.815 105.289 139.237 104.853 138.782C104.417 138.327 103.877 138.099 103.232 138.099C102.587 138.099 102.047 138.327 101.611 138.782C101.175 139.237 100.957 139.815 100.957 140.517C100.957 141.218 101.175 141.796 101.611 142.252ZM113.552 142.906C112.907 143.588 112.096 143.93 111.12 143.93C110.143 143.93 109.328 143.588 108.674 142.906C108.029 142.214 107.707 141.322 107.707 140.232C107.707 139.142 108.029 138.255 108.674 137.573C109.328 136.881 110.143 136.535 111.12 136.535C112.096 136.535 112.907 136.881 113.552 137.573C114.206 138.255 114.533 139.142 114.533 140.232C114.533 141.322 114.206 142.214 113.552 142.906ZM109.442 142.18C109.897 142.683 110.456 142.934 111.12 142.934C111.784 142.934 112.338 142.683 112.784 142.18C113.239 141.678 113.466 141.029 113.466 140.232C113.466 139.436 113.239 138.786 112.784 138.284C112.338 137.781 111.784 137.53 111.12 137.53C110.456 137.53 109.897 137.781 109.442 138.284C108.996 138.786 108.774 139.436 108.774 140.232C108.774 141.029 108.996 141.678 109.442 142.18ZM115.099 143.858V142.792H115.526C116.094 142.792 116.403 142.46 116.45 141.796L116.877 136.677H121.641V143.787H120.574V137.672H117.872L117.517 141.796C117.393 143.171 116.73 143.858 115.526 143.858H115.099ZM123.632 143.787V136.677H124.699V139.094H126.903C127.614 139.094 128.192 139.317 128.638 139.763C129.093 140.199 129.32 140.758 129.32 141.441C129.32 142.124 129.093 142.688 128.638 143.133C128.192 143.569 127.614 143.787 126.903 143.787H123.632ZM124.699 142.792H126.903C127.301 142.792 127.623 142.669 127.87 142.422C128.126 142.166 128.254 141.839 128.254 141.441C128.254 141.043 128.126 140.72 127.87 140.474C127.623 140.218 127.301 140.09 126.903 140.09H124.699V142.792ZM130.742 143.787V136.677H131.809V142.792H134.724V136.677H135.791V142.792H138.706V136.677H139.773V143.787H130.742ZM146.675 141.796H147.813C147.566 142.479 147.178 143.005 146.647 143.375C146.125 143.745 145.495 143.93 144.755 143.93C143.779 143.93 142.964 143.588 142.309 142.906C141.665 142.214 141.342 141.322 141.342 140.232C141.342 139.142 141.665 138.255 142.309 137.573C142.964 136.881 143.779 136.535 144.755 136.535C145.694 136.535 146.471 136.857 147.088 137.502C147.713 138.146 148.026 138.962 148.026 139.948C148.026 140.099 148.012 140.303 147.984 140.559L147.955 140.73H142.409C142.485 141.394 142.741 141.929 143.177 142.337C143.623 142.735 144.149 142.934 144.755 142.934C145.182 142.934 145.561 142.835 145.893 142.635C146.234 142.436 146.495 142.157 146.675 141.796ZM142.409 139.734H146.96C146.922 139.09 146.694 138.564 146.277 138.156C145.869 137.739 145.362 137.53 144.755 137.53C144.12 137.53 143.589 137.734 143.163 138.142C142.736 138.549 142.485 139.08 142.409 139.734ZM152.51 141.157H153.647C153.752 141.687 153.993 142.105 154.373 142.408C154.761 142.711 155.231 142.863 155.78 142.863C156.425 142.863 156.966 142.645 157.402 142.209C157.838 141.763 158.056 141.209 158.056 140.545C158.056 139.862 157.852 139.308 157.444 138.881C157.037 138.455 156.506 138.241 155.852 138.241C155.017 138.241 154.377 138.526 153.932 139.094H152.723L153.292 133.833H158.625V134.899H154.245L153.932 137.815H154.003C154.486 137.388 155.15 137.175 155.994 137.175C156.866 137.175 157.615 137.502 158.241 138.156C158.876 138.801 159.193 139.597 159.193 140.545C159.193 141.531 158.871 142.342 158.226 142.977C157.591 143.612 156.776 143.93 155.78 143.93C154.927 143.93 154.197 143.683 153.59 143.19C152.984 142.697 152.623 142.019 152.51 141.157ZM164.326 143.787V133.833H166.388L169.445 142.507H169.73L172.787 133.833H174.849V143.787H173.711V135.326H173.427L170.441 143.787H168.734L165.748 135.326H165.463V143.787H164.326ZM177.13 143.787V133.833H183.814V134.899H178.268V138.099H181.61C182.368 138.099 183.008 138.364 183.529 138.895C184.051 139.426 184.312 140.109 184.312 140.943C184.312 141.777 184.051 142.46 183.529 142.991C183.008 143.522 182.368 143.787 181.61 143.787H177.13ZM178.268 142.721H181.61C182.074 142.721 182.449 142.56 182.733 142.237C183.027 141.915 183.174 141.484 183.174 140.943C183.174 140.403 183.027 139.971 182.733 139.649C182.449 139.327 182.074 139.166 181.61 139.166H178.268V142.721Z" fill="#323234" fill-opacity="0.8"/>
</svg>
