<svg width="24" height="24" viewBox="0 0 24 24" fill="none" xmlns="http://www.w3.org/2000/svg">
<path d="M8.2464 20.249C8.66061 20.249 8.9964 19.9132 8.9964 19.499C8.9964 19.0848 8.66061 18.749 8.2464 18.749C7.83219 18.749 7.4964 19.0848 7.4964 19.499C7.4964 19.9132 7.83219 20.249 8.2464 20.249Z" fill="#2A2B2C" stroke="#2A2B2C" stroke-width="1.19514" stroke-linecap="round" stroke-linejoin="round"/>
<path d="M17.8341 20.249C18.2483 20.249 18.5841 19.9132 18.5841 19.499C18.5841 19.0848 18.2483 18.749 17.8341 18.749C17.4199 18.749 17.0841 19.0848 17.0841 19.499C17.0841 19.9132 17.4199 20.249 17.8341 20.249Z" fill="#2A2B2C" stroke="#2A2B2C" stroke-width="1.19514" stroke-linecap="round" stroke-linejoin="round"/>
<path d="M2.2464 3.74902H5.2464L7.4964 16.499H19.4964" stroke="#2A2B2C" stroke-width="1.19514" stroke-linecap="round" stroke-linejoin="round"/>
<path d="M7.4964 13.5H19.1889C19.2756 13.5001 19.3597 13.4701 19.4268 13.4151C19.4939 13.3601 19.5398 13.2836 19.5569 13.1986L20.9069 6.44859C20.9178 6.39417 20.9164 6.338 20.903 6.28414C20.8895 6.23029 20.8643 6.18009 20.8291 6.13717C20.7939 6.09426 20.7496 6.05969 20.6994 6.03597C20.6492 6.01225 20.5944 5.99996 20.5389 6H5.9964" stroke="#2A2B2C" stroke-width="1.19514" stroke-linecap="round" stroke-linejoin="round"/>
</svg>
